<?xml version="1.0" encoding="utf-8"?>
<!-- Generator: Adobe Illustrator 17.0.0, SVG Export Plug-In . SVG Version: 6.00 Build 0)  -->
<!DOCTYPE svg PUBLIC "-//W3C//DTD SVG 1.1//EN" "http://www.w3.org/Graphics/SVG/1.1/DTD/svg11.dtd">
<svg version="1.1" id="Warstwa_2" xmlns="http://www.w3.org/2000/svg" xmlns:xlink="http://www.w3.org/1999/xlink" x="0px" y="0px"
	 width="64.175px" height="22.008px" viewBox="0 0 64.175 22.008" enable-background="new 0 0 64.175 22.008" xml:space="preserve">
<g>
	
		<rect x="1.016" y="12.016" fill="none" stroke="#5384FF" stroke-width="2" stroke-linecap="round" stroke-linejoin="round" stroke-miterlimit="10" width="18" height="6"/>
	
		<rect x="1.016" y="1.016" fill="none" stroke="#5384FF" stroke-width="2" stroke-linecap="round" stroke-linejoin="round" stroke-miterlimit="10" width="18" height="6"/>
</g>
<g>
	
		<polyline fill="none" stroke="#5384FF" stroke-width="2" stroke-linecap="round" stroke-linejoin="round" stroke-miterlimit="10" points="
		21.254,15 22.254,11 26.254,18 29.254,8 34.254,21 38.254,1 42.254,11 	"/>
</g>
<rect x="45.254" y="3.004" fill="none" stroke="#5384FF" stroke-width="2" stroke-linecap="round" stroke-linejoin="round" stroke-miterlimit="10" width="18" height="16"/>
<line fill="none" stroke="#5384FF" stroke-width="2" stroke-linecap="round" stroke-linejoin="round" stroke-miterlimit="10" x1="58.254" y1="1.004" x2="58.254" y2="5.004"/>
<line fill="none" stroke="#5384FF" stroke-width="2" stroke-linecap="round" stroke-linejoin="round" stroke-miterlimit="10" x1="50.254" y1="1.004" x2="50.254" y2="5.004"/>
<path fill="#5384FF" d="M50.785,11.004h-1.062c-0.259,0-0.469-0.21-0.469-0.469V9.473c0-0.259,0.21-0.469,0.469-0.469h1.063
	c0.259,0,0.469,0.21,0.469,0.469v1.063C51.254,10.794,51.044,11.004,50.785,11.004z"/>
<path fill="#5384FF" d="M54.785,11.004h-1.062c-0.259,0-0.469-0.21-0.469-0.469V9.473c0-0.259,0.21-0.469,0.469-0.469h1.063
	c0.259,0,0.469,0.21,0.469,0.469v1.063C55.254,10.794,55.044,11.004,54.785,11.004z"/>
<path fill="#5384FF" d="M58.785,11.004h-1.062c-0.259,0-0.469-0.21-0.469-0.469V9.473c0-0.259,0.21-0.469,0.469-0.469h1.063
	c0.259,0,0.469,0.21,0.469,0.469v1.063C59.254,10.794,59.044,11.004,58.785,11.004z"/>
<path fill="#5384FF" d="M50.785,15.004h-1.062c-0.259,0-0.469-0.21-0.469-0.469v-1.062c0-0.259,0.21-0.469,0.469-0.469h1.063
	c0.259,0,0.469,0.21,0.469,0.469v1.063C51.254,14.794,51.044,15.004,50.785,15.004z"/>
<path fill="#5384FF" d="M54.785,15.004h-1.062c-0.259,0-0.469-0.21-0.469-0.469v-1.062c0-0.259,0.21-0.469,0.469-0.469h1.063
	c0.259,0,0.469,0.21,0.469,0.469v1.063C55.254,14.794,55.044,15.004,54.785,15.004z"/>
<path fill="#5384FF" d="M58.785,15.004h-1.062c-0.259,0-0.469-0.21-0.469-0.469v-1.062c0-0.259,0.21-0.469,0.469-0.469h1.063
	c0.259,0,0.469,0.21,0.469,0.469v1.063C59.254,14.794,59.044,15.004,58.785,15.004z"/>
</svg>
