<?xml version="1.0" encoding="utf-8"?>
<!-- Generator: Adobe Illustrator 17.0.0, SVG Export Plug-In . SVG Version: 6.00 Build 0)  -->
<!DOCTYPE svg PUBLIC "-//W3C//DTD SVG 1.1//EN" "http://www.w3.org/Graphics/SVG/1.1/DTD/svg11.dtd">
<svg version="1.1" id="Layer_1" xmlns="http://www.w3.org/2000/svg" xmlns:xlink="http://www.w3.org/1999/xlink" x="0px" y="0px"
	 width="24px" height="42px" viewBox="0 0 24 42" enable-background="new 0 0 24 42" xml:space="preserve">
<path fill-rule="evenodd" clip-rule="evenodd" fill="#8492AF" d="M1.046,36.725l15.718-15.718L0.84,5.083l0.001-0.001
	C0.321,4.543,0,3.809,0,3c0-1.657,1.343-3,3-3c0.809,0,1.543,0.321,2.082,0.841L5.083,0.84l18,18l-0.001,0.001
	C23.648,19.387,24,20.152,24,21c0,0.002,0,0.005,0,0.007c0,0.002,0,0.004,0,0.007c0,0.847-0.352,1.613-0.918,2.158l0.001,0.001
	l-18,18l-0.008-0.007C4.536,41.682,3.806,42,3,42c-1.657,0-3-1.343-3-3C0,38.09,0.406,37.275,1.046,36.725"/>
</svg>
