<?xml version="1.0" encoding="utf-8"?>
<!-- Generator: Adobe Illustrator 17.0.0, SVG Export Plug-In . SVG Version: 6.00 Build 0)  -->
<!DOCTYPE svg PUBLIC "-//W3C//DTD SVG 1.1//EN" "http://www.w3.org/Graphics/SVG/1.1/DTD/svg11.dtd">
<svg version="1.1" id="Layer_1" xmlns="http://www.w3.org/2000/svg" xmlns:xlink="http://www.w3.org/1999/xlink" x="0px" y="0px"
	 width="16.938px" height="21.313px" viewBox="0 0 16.938 21.313" enable-background="new 0 0 16.938 21.313" xml:space="preserve">
<g>
	<path fill="#FFFFFF" stroke="#000000" stroke-width="0.5" stroke-miterlimit="10" d="M16.374,4.398c0,0.665-0.54,1.204-1.204,1.204
		c-0.66,0-1.199-0.539-1.199-1.204c0-0.66,0.539-1.199,1.199-1.199C15.834,3.199,16.374,3.738,16.374,4.398L16.374,4.398z"/>
	<path fill="#FFFFFF" stroke="#000000" stroke-width="0.5" stroke-miterlimit="10" d="M13.17,2c0,0.664-0.535,1.199-1.199,1.199
		c-0.66,0-1.199-0.535-1.199-1.199s0.539-1.199,1.199-1.199C12.635,0.801,13.17,1.336,13.17,2L13.17,2z"/>
	<path fill="#FFFFFF" stroke="#000000" stroke-width="0.5" stroke-miterlimit="10" d="M9.971,1.199c0,0.664-0.535,1.199-1.199,1.199
		c-0.664,0-1.199-0.535-1.199-1.199C7.573,0.539,8.108,0,8.772,0C9.436,0,9.971,0.539,9.971,1.199L9.971,1.199z"/>
	<path fill="#FFFFFF" stroke="#000000" stroke-width="0.5" stroke-miterlimit="10" d="M6.772,2.801C6.772,3.461,6.233,4,5.573,4
		C4.909,4,4.374,3.461,4.374,2.801c0-0.664,0.535-1.199,1.199-1.199C6.233,1.602,6.772,2.137,6.772,2.801L6.772,2.801z"/>
	<path fill="#FFFFFF" stroke="#000000" stroke-width="0.5" stroke-miterlimit="10" d="M4.374,2.801"/>
	<path fill="#FFFFFF" stroke="#000000" stroke-width="0.5" stroke-miterlimit="10" d="M4.374,2.801v10l-1.622-2.219
		c-0.48-0.738-1.418-0.988-2.105-0.562c-0.684,0.433-0.852,1.378-0.379,2.117c0,0,2.613,3.953,3.727,5.644
		c1.113,1.696,2.918,3.02,6.293,3.02c5.586,0,6.086-4.313,6.086-5.602V4.398h-2.403v5.204c0,0.218-0.179,0.398-0.398,0.398
		c-0.223,0-0.403-0.18-0.403-0.398V2h-2.398v6.801c0,0.219-0.18,0.398-0.398,0.398c-0.223,0-0.403-0.179-0.403-0.398V1.199H7.573
		v7.602c0,0.219-0.18,0.398-0.403,0.398c-0.218,0-0.398-0.179-0.398-0.398v-6"/>
</g>
</svg>
