<?xml version="1.0" encoding="utf-8"?>
<!-- Generator: Adobe Illustrator 17.0.0, SVG Export Plug-In . SVG Version: 6.00 Build 0)  -->
<!DOCTYPE svg PUBLIC "-//W3C//DTD SVG 1.1//EN" "http://www.w3.org/Graphics/SVG/1.1/DTD/svg11.dtd">
<svg version="1.1" id="Layer_1" xmlns="http://www.w3.org/2000/svg" xmlns:xlink="http://www.w3.org/1999/xlink" x="0px" y="0px"
	 width="16.969px" height="21.188px" viewBox="-0.312 -0.156 16.969 21.188" enable-background="new -0.312 -0.156 16.969 21.188"
	 xml:space="preserve">
<path fill="#FFFFFF" stroke="#000000" stroke-width="0.5" stroke-miterlimit="10" d="M9.959,1.526v0.11l0.01,2.63v4.53
	c0,0.22,0.18,0.4,0.41,0.4c0.21,0,0.39-0.18,0.39-0.4v-4.53v-2.15c0-0.66,0.53-1.19,1.19-1.19s1.2,0.53,1.2,1.19l0.01,2.15v5.34
	c0,0.21,0.18,0.39,0.4,0.39c0.22,0,0.4-0.18,0.4-0.39v-3.43l0-1.56c0-0.66,0.53-1.19,1.19-1.19c0.66,0,1.2,0.53,1.2,1.19l0.02,1.56
	v9.02c0,1.29-0.5,5.6-6.09,5.6c-3.38,0-5.18-1.32-6.29-3.02c-1.12-1.69-3.73-5.64-3.73-5.64c-0.47-0.74-0.31-1.68,0.38-2.12
	c0.69-0.42,1.62-0.17,2.1,0.57l1.63,2.21v-9.59v-0.23c0-0.66,0.53-1.19,1.19-1.19s1.2,0.53,1.2,1.19v0.23v5.59
	c0,0.22,0.18,0.4,0.4,0.4c0.22,0,0.4-0.18,0.4-0.4v-4.53v-2.63v-0.23c0-0.66,0.53-1.19,1.19-1.19s1.2,0.53,1.2,1.19V1.526v0.11"/>
</svg>
